# xmcd
#
# Track frame offsets:
#	150
#	15905
#	35204
#	54186
#	74790
#	93737
#	112913
#	135757
#	154351
#	172875
#	193391
#	211033
#	227405
#	252611
#	269019
#	288706
#	305837
#
# Disc length: 4315 seconds
#
# Revision: 0
# Processed by: cddbd v1.4PL0 Copyright (c) Steve Scherf et al.
# Submitted via: dBpowerAMP V4.0
#
DISCID=fc10d911
DTITLE=zeze di camargo e luciano - as 20 mais
DYEAR=2000
DGENRE=sertanejo
TTITLE0=passou da conta
TTITLE1=pra sempre em mim
TTITLE2=e o amor
TTITLE3=cara ou coroa
TTITLE4=tarde demais
TTITLE5=antes de voltar casa
TTITLE6=e minha vida
TTITLE7=cada volta e um recomeco
TTITLE8=serafim e seus filhos
TTITLE9=pare
TTITLE10=sera que foi saudade
TTITLE11=indiferenca
TTITLE12=saudade bandida
TTITLE13=o ultimo dos apaixonados
TTITLE14=muda de vida
TTITLE15=depois que vc matar meu coracao
TTITLE16=preciso ser amado
EXTD=
EXTT0=
EXTT1=
EXTT2=
EXTT3=
EXTT4=
EXTT5=
EXTT6=
EXTT7=
EXTT8=
EXTT9=
EXTT10=
EXTT11=
EXTT12=
EXTT13=
EXTT14=
EXTT15=
EXTT16=
PLAYORDER=
